<?xml version="1.0" encoding="UTF-8" standalone="no"?>
<!-- Created with Inkscape (http://www.inkscape.org/) -->
<svg
   xmlns:dc="http://purl.org/dc/elements/1.1/"
   xmlns:cc="http://creativecommons.org/ns#"
   xmlns:rdf="http://www.w3.org/1999/02/22-rdf-syntax-ns#"
   xmlns:svg="http://www.w3.org/2000/svg"
   xmlns="http://www.w3.org/2000/svg"
   xmlns:sodipodi="http://sodipodi.sourceforge.net/DTD/sodipodi-0.dtd"
   xmlns:inkscape="http://www.inkscape.org/namespaces/inkscape"
   width="500"
   height="354.42001"
   id="svg2"
   sodipodi:version="0.32"
   inkscape:version="0.46"
   version="1.0"
   sodipodi:docname="Logo SwissLife.svg"
   inkscape:output_extension="org.inkscape.output.svg.inkscape">
  <defs
     id="defs4">
    <inkscape:perspective
       sodipodi:type="inkscape:persp3d"
       inkscape:vp_x="0 : 526.18109 : 1"
       inkscape:vp_y="0 : 1000 : 0"
       inkscape:vp_z="744.09448 : 526.18109 : 1"
       inkscape:persp3d-origin="372.04724 : 350.78739 : 1"
       id="perspective10" />
    <clipPath
       id="clp5">
      <path
         id="path2475"
         d="M 460.28,810.71 L 460.28,740.5 L 561.05,740.5 L 561.05,810.71" />
    </clipPath>
    <clipPath
       id="clp6">
      <path
         id="path2503"
         d="M 460.28,810.71 L 460.28,740.5 L 561.05,740.5 L 561.05,810.71" />
    </clipPath>
    <inkscape:perspective
       id="perspective2513"
       inkscape:persp3d-origin="354.33072 : 164.57727 : 1"
       inkscape:vp_z="708.66144 : 246.86591 : 1"
       inkscape:vp_y="0 : 1000 : 0"
       inkscape:vp_x="0 : 246.86591 : 1"
       sodipodi:type="inkscape:persp3d" />
  </defs>
  <sodipodi:namedview
     id="base"
     pagecolor="#ffffff"
     bordercolor="#666666"
     borderopacity="1.0"
     inkscape:pageopacity="0.0"
     inkscape:pageshadow="2"
     inkscape:zoom="0.35"
     inkscape:cx="8.5714286"
     inkscape:cy="520"
     inkscape:document-units="px"
     inkscape:current-layer="layer1"
     showgrid="false"
     inkscape:window-width="1280"
     inkscape:window-height="750"
     inkscape:window-x="-8"
     inkscape:window-y="-8" />
  <metadata
     id="metadata7">
    <rdf:RDF>
      <cc:Work
         rdf:about="">
        <dc:format>image/svg+xml</dc:format>
        <dc:type
           rdf:resource="http://purl.org/dc/dcmitype/StillImage" />
      </cc:Work>
    </rdf:RDF>
  </metadata>
  <g
     inkscape:label="Ebene 1"
     inkscape:groupmode="layer"
     id="layer1"
     transform="translate(497.18764,-116.23551)">
    <g
       id="g2520"
       transform="matrix(0.6773337,0,0,0.6773337,-502.58389,370.31181)">
      <g
         id="g2647"
         transform="matrix(7.03246,0,0,7.03246,-3214.17,-579.639)">
        <path
           id="path2449"
           style="fill:#ffffff;fill-rule:nonzero;stroke:none"
           d="M 528.86,51.72 C 518.68,51.84 505.88,54.43 500.25,59.94 C 497.4,62.72 496.41,66.07 497.32,69.9 C 498.32,74.14 501.79,76.5 504.7,77.29 C 505.75,77.58 506.52,77.57 506.73,77.56 C 506.58,77.41 506.06,76.93 506.06,76.93 C 506.06,76.93 505.44,76.13 505.44,76.13 C 504.98,75.41 504.61,74.57 504.34,73.63 C 504.18,73.05 504.1,72.48 504.1,71.9 C 504.1,70.23 504.79,68.61 506.14,67.22 C 509.33,63.91 516.15,62.24 526.42,62.25 C 526.42,62.25 532.49,62.37 532.49,62.37 C 532.5,62.37 532.63,62.35 532.63,62.35 C 532.65,62.33 532.7,62.19 532.7,62.19 C 532.89,61.64 533.54,59.66 533.82,57.03 C 533.97,55.54 533.96,53.87 533.78,52.05 L 533.72,51.89 L 533.63,51.86 C 532.2,51.74 530.64,51.69 528.86,51.72" />
        <path
           id="path2451"
           style="fill:#ffffff;fill-rule:nonzero;stroke:none"
           d="M 508.48,31.45 C 508.48,31.45 508.48,31.45 508.48,31.45 C 507.05,31.58 505.45,31.87 504.41,32.19 C 504.41,32.19 504.33,32.21 504.33,32.21 L 504.23,32.24 C 504.23,32.24 504.18,32.35 504.18,32.35 C 503.41,35.02 499.72,37.93 497.94,39.33 L 497.2,39.92 L 496.57,40.46 C 495.14,41.66 493.79,42.8 492.54,44.15 C 491.54,45.24 490.14,46.88 489.17,48.58 C 488.36,49.99 487.82,51.53 487.53,53.3 C 487.39,54.16 487.32,55.05 487.32,55.86 C 487.32,56.19 487.33,56.51 487.35,56.81 L 487.38,57.1 C 487.47,57.93 487.6,58.65 487.77,59.13 C 487.77,59.13 487.77,59.13 487.77,59.13 C 487.79,59.05 487.82,58.95 487.82,58.95 L 488.07,58.03 C 488.07,58.03 488.15,57.78 488.15,57.78 L 488.48,56.71 C 489.19,54.65 490.28,52.85 491.8,51.18 C 495.02,47.64 498.4,45.7 501.67,43.83 C 504.21,42.38 506.61,41 508.86,38.95 C 511.87,36.2 512.97,33.6 513.63,32.05 C 513.63,32.05 513.83,31.58 513.83,31.58 C 513.82,31.6 513.68,31.57 513.68,31.57 C 512.36,31.34 510.18,31.29 508.48,31.45" />
        <path
           id="path2453"
           style="fill:#ffffff;fill-rule:nonzero;stroke:none"
           d="M 533.5,50.09 C 533.52,50.09 533.55,50.09 533.55,50.09 C 533.52,50.09 533.51,50.09 533.5,50.09 z M 514.56,42.74 C 508.23,43.97 502.75,46.06 498.26,48.97 C 492.69,52.58 489.81,56.23 488.61,61.17 C 488.58,61.29 488.56,61.42 488.56,61.57 C 488.56,62.32 488.92,63.49 489.56,64.81 C 489.9,65.52 490.27,66.08 490.62,66.61 C 490.62,66.61 490.65,66.66 490.69,66.71 C 490.7,66.62 490.71,66.54 490.71,66.54 C 490.79,66.07 490.92,65.38 491.26,64.45 C 491.96,62.59 493.58,58.21 501.05,54.61 C 505.23,52.6 510.12,51.28 515.99,50.59 C 522.91,49.77 528.93,49.59 533.39,50.08 C 533.41,50.08 533.44,50.09 533.47,50.09 C 533.47,50.07 533.47,50.05 533.47,50.05 C 533.05,47.88 532.1,45.28 531.03,43.44 C 531.03,43.43 530.32,42.21 530.32,42.21 L 530.13,41.9 C 530.13,41.9 530.06,41.81 530.06,41.81 C 530.06,41.81 530,41.75 530,41.75 C 530,41.75 529.77,41.7 529.77,41.7 C 529.18,41.63 527.75,41.56 525.85,41.56 C 522.64,41.52 518.74,41.93 514.56,42.74" />
        <path
           id="path2455"
           style="fill:#ffffff;fill-rule:nonzero;stroke:none"
           d="M 461.21,88.43 C 461.21,89.53 461.57,90.41 462.32,91.13 C 463.09,91.91 463.8,92.25 465.93,93.2 C 468.72,94.44 470.05,95.13 470.05,97.13 C 470.05,99.06 468.51,100.46 466.38,100.46 C 464.93,100.46 463.55,100.04 462.61,99.32 C 461.79,98.67 461.26,97.74 461.03,96.55 C 461.03,96.53 460.95,96.26 460.95,96.26 C 460.49,96.26 460.46,96.54 460.46,96.62 C 460.46,97.35 460.7,99.61 460.86,100.72 C 460.87,100.82 460.9,101.01 460.93,101.05 C 460.93,101.05 461.04,101.06 461.04,101.06 L 461.25,100.97 L 461.69,100.81 L 462.47,100.91 C 463.27,101.02 464.61,101.22 466.11,101.22 C 468.76,101.22 469.95,100.59 470.69,100.04 C 471.75,99.26 472.38,97.99 472.38,96.62 C 472.38,93.7 469.94,92.64 467.79,91.7 C 467.76,91.68 467.68,91.65 467.68,91.65 C 464.56,90.28 463.27,89.71 463.27,87.62 C 463.27,85.76 464.61,84.51 466.62,84.51 C 467.69,84.51 468.65,84.78 469.33,85.27 C 470.28,85.9 470.58,86.81 470.85,87.62 L 471,87.99 C 471.19,87.99 471.43,87.93 471.43,87.81 L 471.32,86.59 L 471.3,86.37 C 471.23,85.8 471.26,84.76 471.27,84.31 L 471.27,84.14 L 471.26,84.03 C 471.25,84.05 471.04,84.06 471.04,84.06 C 471.08,84.04 470.71,84.18 470.71,84.18 L 470.19,84.12 L 469.29,84.02 C 468.52,83.94 467.62,83.88 466.94,83.88 C 463.41,83.88 461.21,85.63 461.21,88.43" />
        <path
           id="path2457"
           style="fill:#ffffff;fill-rule:nonzero;stroke:none"
           d="M 487.69,89.87 C 487.64,89.87 487.62,90.05 487.62,90.05 C 487.62,90.05 487.63,90.19 487.63,90.2 C 487.64,90.18 487.83,90.2 487.83,90.2 C 488.26,90.21 489.27,90.26 489.27,91.2 C 489.27,91.73 488.89,92.65 488.59,93.39 L 488.56,93.48 C 488.55,93.48 486.26,98.58 486.26,98.58 C 486.23,98.64 486.17,98.68 486.1,98.68 C 486.03,98.68 485.96,98.63 485.94,98.57 C 485.57,97.5 483.64,91.73 483.64,91.18 C 483.64,90.37 484.25,90.33 485.09,90.28 C 485.09,90.28 485.27,90.23 485.28,90.23 C 485.27,90.23 485.27,90.23 485.27,90.22 C 485.27,90.18 485.28,90.05 485.28,90.05 L 485.27,89.88 C 485.27,89.88 485.16,89.87 485.16,89.87 L 482.73,89.89 L 480.15,89.87 C 480,89.87 480,89.87 480,90.07 L 480.01,90.19 C 480.56,90.28 480.77,90.31 481.06,90.63 C 481.32,90.99 481.67,91.82 482.19,93.16 C 482.21,93.21 482.21,93.26 482.19,93.3 L 479.63,98.64 C 479.6,98.7 479.54,98.74 479.47,98.74 C 479.4,98.73 479.34,98.69 479.31,98.63 L 477.98,95.22 L 477.56,94.12 C 477.56,94.12 477.46,93.85 477.46,93.85 C 477.07,92.74 476.69,91.68 476.69,91.23 C 476.69,90.63 477.07,90.33 477.95,90.25 C 477.95,90.25 478.14,90.22 478.14,90.22 C 478.14,90.22 478.14,90.2 478.14,90.18 C 478.14,90.13 478.14,90.05 478.14,90.05 C 478.14,90.05 478.13,89.91 478.12,89.87 C 478.01,89.87 475.54,89.89 475.54,89.89 L 473.41,89.87 L 473.29,89.88 C 473.29,89.88 473.3,89.88 473.3,89.89 C 473.3,89.91 473.29,89.99 473.29,89.99 C 473.29,90.19 473.29,90.19 473.5,90.3 C 473.82,90.44 474.06,90.8 474.51,91.72 C 475.5,93.87 477.05,97.93 477.99,100.66 C 478.01,100.69 478.16,101.07 478.16,101.07 C 478.17,101.05 479.05,100.93 479.05,100.93 C 479.05,100.93 479.13,100.91 479.13,100.91 C 479.13,100.91 479.13,100.91 479.13,100.91 C 479.13,100.89 479.2,100.71 479.2,100.71 C 480.07,98.75 480.49,97.87 482.28,94.39 C 482.32,94.32 482.38,94.29 482.45,94.29 C 482.52,94.3 482.58,94.34 482.6,94.41 C 483.62,97.26 484.32,99.49 484.6,100.54 C 484.65,100.74 484.73,101 484.77,101.05 C 484.79,101.03 485.46,100.95 485.46,100.95 C 485.69,100.93 485.79,100.86 485.86,100.68 C 485.87,100.67 486.54,99.14 486.54,99.14 C 486.54,99.14 486.77,98.64 486.77,98.64 C 487.6,96.85 488.54,94.82 489.16,93.66 C 489.96,92.15 490.86,90.57 491.5,90.27 C 491.66,90.18 491.67,90.17 491.67,89.99 L 491.66,89.87 C 491.6,89.87 490.97,89.88 490.97,89.88 L 489.82,89.89 L 488.26,89.88 L 487.69,89.87 L 487.69,89.87" />
        <path
           id="path2459"
           style="fill:#ffffff;fill-rule:nonzero;stroke:none"
           d="M 495.94,89.66 C 495.94,89.66 494.33,90.39 494.33,90.39 L 493.1,90.96 C 493.1,90.96 493.1,90.96 493.1,90.96 L 493.02,91 C 492.84,91.09 492.83,91.1 492.83,91.26 C 492.83,91.26 492.83,91.4 492.83,91.4 C 492.84,91.39 493.12,91.46 493.12,91.46 C 494.58,91.64 494.58,92.15 494.58,94.98 C 494.58,96.58 494.58,98.78 494.35,99.48 C 494.15,100.13 493.77,100.39 492.82,100.56 C 492.53,100.63 492.53,100.63 492.53,100.83 L 492.54,100.96 C 492.6,100.95 493.63,100.93 493.63,100.93 L 495.67,100.89 L 497.92,100.93 L 498.58,100.95 L 498.68,100.94 C 498.68,100.94 498.68,100.94 498.68,100.94 C 498.68,100.92 498.71,100.74 498.71,100.74 L 498.69,100.58 C 498.69,100.58 498.43,100.54 498.43,100.54 C 497.39,100.49 496.74,100.41 496.58,99.51 C 496.49,99.1 496.44,97.65 496.44,95.08 L 496.52,91.2 C 496.52,91.16 496.63,89.55 496.63,89.55 C 496.62,89.51 496.53,89.49 496.53,89.49 C 496.36,89.49 496.17,89.55 495.94,89.66 z M 494.55,84.36 C 494.55,84.88 495.2,85.53 495.72,85.53 C 496.34,85.53 497.01,84.88 497.01,84.28 C 497.01,83.74 496.35,83.08 495.81,83.08 C 495.29,83.08 494.55,83.74 494.55,84.36" />
        <path
           id="path2461"
           style="fill:#ffffff;fill-rule:nonzero;stroke:none"
           d="M 500.51,92.69 C 500.51,94.52 502.11,95.27 503.53,95.93 C 505.24,96.73 506.36,97.35 506.36,98.64 C 506.36,99.56 505.75,100.62 504.05,100.62 C 503.58,100.62 501.2,100.5 500.54,98.04 L 500.43,97.7 C 500.19,97.71 500.08,97.74 500.08,97.81 C 500.22,99.01 500.14,99.83 500.19,100.92 C 500.2,100.92 500.38,100.89 500.38,100.89 L 500.58,100.87 L 500.86,100.9 C 500.86,100.9 501.24,100.96 501.24,100.96 C 501.75,101.05 502.61,101.19 503.68,101.19 C 504.45,101.19 508.3,101.04 508.3,98.08 C 508.3,96.15 506.53,95.33 505.11,94.67 C 503.05,93.71 502.21,93.2 502.21,92.04 C 502.21,91.74 502.31,90.22 504.24,90.22 C 505.55,90.22 506.56,90.93 507.18,92.26 C 507.18,92.28 507.29,92.51 507.29,92.51 C 507.29,92.51 507.29,92.51 507.29,92.51 C 507.61,92.51 507.66,92.48 507.67,92.47 C 507.67,92.47 507.67,92.47 507.67,92.47 C 507.67,92.47 507.68,92.36 507.68,92.36 L 507.55,90.75 L 507.49,90.11 C 507.49,90.08 507.44,89.79 507.44,89.79 C 507.42,89.81 507.24,89.84 507.24,89.84 L 507.05,89.87 L 506.61,89.82 C 506.15,89.76 505.39,89.65 504.73,89.65 C 500.71,89.65 500.51,92.18 500.51,92.69" />
        <path
           id="path2463"
           style="fill:#ffffff;fill-rule:nonzero;stroke:none"
           d="M 510.53,92.69 C 510.53,94.52 512.14,95.27 513.56,95.93 C 515.26,96.73 516.38,97.35 516.38,98.64 C 516.38,99.56 515.78,100.62 514.08,100.62 C 513.61,100.62 511.22,100.5 510.57,98.04 L 510.46,97.7 C 510.21,97.71 510.1,97.74 510.1,97.81 C 510.25,99.01 510.17,99.83 510.21,100.92 C 510.22,100.92 510.41,100.89 510.41,100.89 L 510.6,100.87 L 510.88,100.9 L 511.26,100.96 C 511.78,101.05 512.63,101.19 513.7,101.19 C 514.47,101.19 518.33,101.04 518.33,98.08 C 518.33,96.15 516.56,95.33 515.14,94.67 C 513.08,93.71 512.24,93.2 512.24,92.04 C 512.24,91.74 512.33,90.22 514.27,90.22 C 515.57,90.22 516.59,90.93 517.2,92.26 C 517.21,92.28 517.32,92.51 517.32,92.51 C 517.32,92.51 517.32,92.51 517.32,92.51 C 517.64,92.51 517.69,92.48 517.7,92.47 C 517.7,92.47 517.7,92.47 517.7,92.47 C 517.7,92.47 517.71,92.36 517.71,92.36 L 517.58,90.75 L 517.52,90.11 C 517.51,90.08 517.46,89.79 517.46,89.79 C 517.45,89.81 517.27,89.84 517.27,89.84 L 517.07,89.87 L 516.63,89.82 C 516.18,89.76 515.41,89.65 514.75,89.65 C 510.74,89.65 510.53,92.18 510.53,92.69" />
        <path
           id="path2465"
           style="fill:#ffffff;fill-rule:nonzero;stroke:none"
           d="M 526.2,84.17 L 524.19,84.23 L 521.01,84.13 C 521.01,84.13 520.89,84.13 520.89,84.13 C 520.89,84.13 520.89,84.15 520.89,84.17 C 520.89,84.24 520.88,84.36 520.88,84.36 L 520.89,84.44 C 520.93,84.48 521.23,84.51 521.4,84.54 C 522.93,84.78 523.06,85.44 523.06,87.27 L 523.06,91.18 C 523.06,93.4 523.06,96.76 522.9,98.44 C 522.8,99.32 522.68,100.42 520.94,100.57 C 520.93,100.57 520.65,100.62 520.65,100.62 C 520.65,100.62 520.65,100.62 520.65,100.63 C 520.65,100.68 520.64,100.83 520.64,100.83 L 520.66,100.99 C 520.66,100.99 520.79,101 520.79,101 L 521.11,100.99 C 521.72,100.95 523.16,100.87 526.85,100.87 C 530.63,100.87 531.86,100.95 532.45,100.98 L 532.92,101 C 533.03,101 533.07,100.93 533.22,100.39 C 533.81,98.28 533.96,97.06 533.96,96.7 C 533.96,96.64 533.96,96.58 533.54,96.58 C 533.5,96.61 533.45,96.81 533.39,97 C 533.13,97.86 532.66,98.93 531.79,99.44 C 530.81,100.03 528.91,100.03 527.23,100.03 C 526.17,100.03 525.53,100.03 525.36,99.22 C 525.17,98.38 525.14,95.48 525.14,93.04 C 525.14,91.64 525.16,87 525.39,85.91 C 525.58,84.86 526.24,84.61 527.38,84.54 C 527.37,84.54 527.69,84.48 527.69,84.48 C 527.69,84.48 527.71,84.25 527.71,84.25 C 527.71,84.14 527.69,84.13 527.58,84.13 L 526.2,84.17" />
        <path
           id="path2467"
           style="fill:#ffffff;fill-rule:nonzero;stroke:none"
           d="M 538.71,89.66 C 538.71,89.66 537.1,90.39 537.1,90.39 L 535.87,90.96 C 535.87,90.96 535.87,90.96 535.87,90.96 L 535.79,91 C 535.62,91.09 535.6,91.1 535.6,91.26 C 535.6,91.26 535.61,91.4 535.61,91.4 C 535.61,91.39 535.89,91.46 535.89,91.46 C 537.35,91.64 537.35,92.15 537.35,94.98 C 537.35,96.58 537.35,98.78 537.12,99.48 C 536.92,100.13 536.54,100.39 535.59,100.56 C 535.3,100.63 535.3,100.63 535.3,100.83 L 535.31,100.96 C 535.37,100.95 536.4,100.93 536.4,100.93 L 538.44,100.89 L 540.69,100.93 L 541.35,100.95 L 541.45,100.94 L 541.45,100.94 C 541.45,100.92 541.48,100.74 541.48,100.74 L 541.46,100.58 C 541.46,100.58 541.21,100.54 541.21,100.54 C 540.16,100.49 539.51,100.41 539.35,99.51 C 539.26,99.1 539.21,97.65 539.21,95.08 L 539.29,91.18 C 539.29,91.16 539.4,89.55 539.4,89.55 C 539.39,89.51 539.3,89.49 539.3,89.49 C 539.13,89.49 538.94,89.55 538.71,89.66 z M 537.32,84.36 C 537.32,84.88 537.97,85.53 538.5,85.53 C 539.11,85.53 539.78,84.88 539.78,84.28 C 539.78,83.74 539.12,83.08 538.58,83.08 C 538.06,83.08 537.32,83.74 537.32,84.36" />
        <path
           id="path2469"
           style="fill:#ffffff;fill-rule:nonzero;stroke:none"
           d="M 546.02,84.92 C 546.02,84.92 546.02,84.92 546.02,84.92 C 544.84,86.44 544.81,87.49 544.76,89.78 C 544.76,89.85 544.72,89.91 544.66,89.93 L 543.2,90.58 C 543.18,90.59 543.17,90.85 543.17,90.85 L 543.17,90.99 L 544.56,90.95 C 544.61,90.95 544.65,90.97 544.68,91 C 544.72,91.03 544.73,91.08 544.73,91.12 L 544.68,98.46 C 544.63,99.98 544.44,100.38 543.16,100.57 C 543.16,100.56 542.96,100.61 542.96,100.61 C 542.96,100.61 542.96,100.62 542.96,100.62 C 542.96,100.66 542.95,100.8 542.95,100.8 C 542.95,100.8 542.98,100.99 542.98,100.99 C 542.98,100.98 543.75,100.96 543.75,100.96 L 545.42,100.92 L 548.12,100.96 L 549.06,100.98 C 549.43,100.98 549.43,100.98 549.43,100.72 L 549.41,100.54 C 549.41,100.55 549.21,100.51 549.21,100.51 C 547.33,100.51 546.74,100.25 546.68,98.62 C 546.68,98.62 546.62,91.1 546.62,91.1 C 546.62,91.05 546.64,91.01 546.67,90.97 C 546.71,90.94 546.75,90.92 546.8,90.92 L 550.46,90.92 C 550.64,90.92 550.64,90.92 550.64,90.42 L 550.64,90.27 L 550.63,89.9 L 546.8,89.92 C 546.7,89.92 546.62,89.84 546.62,89.75 C 546.62,85.57 546.76,83.57 549.84,83.57 C 551.26,83.57 551.96,84.02 552.35,84.36 C 552.35,84.36 552.57,84.55 552.57,84.55 C 552.7,84.67 552.83,84.78 552.89,84.78 C 553.07,84.77 554.17,84.27 554.17,83.79 C 554.17,83.16 553.1,82.24 551.16,82.24 C 548.89,82.24 547.01,83.63 546.02,84.92" />
        <path
           id="path2471"
           style="fill:#ffffff;fill-rule:nonzero;stroke:none"
           d="M 553.58,94.62 C 553.54,94.59 553.52,94.54 553.52,94.49 C 553.55,92.39 554.34,90.28 556.04,90.28 C 557.51,90.28 558.61,91.9 558.61,92.96 C 558.61,93.38 558.31,93.62 557.51,93.82 C 555.56,94.31 554.87,94.47 553.73,94.66 C 553.68,94.67 553.62,94.66 553.58,94.62 z M 551.55,96 C 551.55,97.22 551.88,101.19 556.07,101.19 C 558,101.19 559.72,100.29 560.62,99.51 C 560.86,99.32 560.88,99.26 560.88,99.15 C 560.88,99.15 560.84,98.94 560.84,98.94 C 560.84,98.94 560.81,98.84 560.81,98.85 C 559.39,99.87 557.93,100 557.36,100 C 554.1,100 553.61,96.74 553.55,95.34 C 553.55,95.33 553.55,95.33 553.55,95.33 C 553.55,95.25 553.61,95.17 553.69,95.16 C 555.63,94.77 558.18,94.27 560.83,93.85 C 560.83,93.84 560.83,93.83 560.83,93.82 C 560.83,93.62 560.77,93.16 560.62,92.57 C 560.03,90.42 558.19,89.65 556.8,89.65 C 554.22,89.65 551.55,92.03 551.55,96" />
        <g
           id="q4"
           style="fill:#ffffff;fill-rule:nonzero;stroke:none"
           transform="matrix(1,0,0,-1,0,841.89)">
          <clipPath
             id="clipPath2708">
            <path
               id="path2710"
               d="M 460.28,810.71 L 460.28,740.5 L 561.05,740.5 L 561.05,810.71" />
          </clipPath>
          <g
             id="g2477"
             clip-path="url(#clp5)">
            <path
               id="path2479"
               style="fill:#e50028;fill-rule:nonzero;stroke:none"
               d="M 533.99,784.84 C 534.15,786.4 534.13,788.1 533.96,789.85 C 533.95,789.96 533.92,790.05 533.85,790.12 C 533.79,790.18 533.73,790.2 533.65,790.21 C 532.21,790.32 530.64,790.37 528.86,790.35 C 518.75,790.22 505.84,787.66 500.13,782.08 C 497.45,779.46 496.17,776.12 497.15,771.95 C 498.26,767.21 502.21,765.1 504.66,764.43 C 505.91,764.09 506.84,764.16 506.84,764.16 C 506.84,764.16 507.02,764.15 507.04,764.24 C 507.05,764.29 506.9,764.41 506.9,764.41 C 506.9,764.41 506.45,764.8 506.19,765.08 C 505.93,765.36 505.79,765.54 505.58,765.86 C 505.21,766.44 504.82,767.22 504.51,768.31 C 503.86,770.63 504.58,772.81 506.26,774.55 C 509.12,777.52 515.41,779.48 526.42,779.46 L 532.49,779.35 C 532.49,779.35 532.67,779.34 532.75,779.41 C 532.8,779.47 532.8,779.46 532.86,779.64 C 533.22,780.66 533.75,782.57 533.99,784.84" />
            <path
               id="path2481"
               style="fill:#e50028;fill-rule:nonzero;stroke:none"
               d="M 513.71,810.49 C 512.4,810.72 510.21,810.78 508.47,810.61 C 507.06,810.48 505.43,810.19 504.36,809.87 C 504.25,809.83 504.17,809.83 504.11,809.77 C 504.06,809.72 504.03,809.65 504.01,809.59 C 503.13,806.51 498.28,803.11 497.09,802.1 C 495.39,800.66 493.85,799.41 492.41,797.85 C 491.18,796.52 489.89,794.93 489.02,793.4 C 488.1,791.8 487.62,790.19 487.36,788.62 C 487.14,787.29 487.1,786.04 487.18,785.07 L 487.18,785.07 C 487.18,785.06 487.2,784.86 487.21,784.77 C 487.35,783.38 487.59,782.76 487.61,782.69 C 487.65,782.57 487.69,782.43 487.78,782.43 C 487.88,782.43 487.9,782.6 487.93,782.71 C 487.96,782.81 488.11,783.37 488.24,783.81 C 488.39,784.33 488.48,784.62 488.64,785.13 C 489.13,786.53 490.02,788.5 491.92,790.59 C 497.6,796.82 503.78,798.07 508.97,802.81 C 512.26,805.81 513.28,808.61 513.94,810.13 C 513.99,810.24 514.04,810.31 513.99,810.38 C 513.94,810.45 513.84,810.47 513.71,810.49" />
          </g>
        </g>
        <path
           id="path2483"
           style="fill:#e50028;fill-rule:nonzero;stroke:none"
           d="M 533.63,50.02 C 533.24,47.93 532.31,45.29 531.18,43.35 C 530.97,42.91 530.53,42.23 530.27,41.81 C 530.16,41.64 530.18,41.7 530.12,41.63 C 530.03,41.54 529.77,41.53 529.77,41.53 C 529.13,41.45 527.63,41.39 525.85,41.39 L 525.84,41.39 C 522.71,41.35 518.83,41.74 514.53,42.57 C 508.17,43.8 502.65,45.92 498.17,48.83 C 493.35,51.95 489.81,55.48 488.44,61.13 C 488.22,62.02 488.79,63.62 489.4,64.89 C 489.79,65.68 490.2,66.28 490.58,66.86 C 490.63,66.94 490.7,67.03 490.76,66.99 C 490.8,66.97 490.81,66.93 490.83,66.83 C 490.92,66.4 491.02,65.62 491.43,64.51 C 492.17,62.51 493.87,58.26 501.13,54.77 C 505.96,52.44 511.21,51.33 516.01,50.76 C 523.62,49.86 529.38,49.82 533.37,50.25 C 533.48,50.26 533.6,50.29 533.63,50.23 C 533.66,50.17 533.65,50.11 533.63,50.02" />
        <path
           id="path2485"
           style="fill:#ffffff;fill-rule:nonzero;stroke:none"
           d="M 529.52,53.49 L 527.41,53.49 L 527.41,55.9 L 524.99,55.9 L 524.99,58.02 L 527.41,58.02 L 527.41,60.43 L 529.52,60.43 L 529.52,58.02 L 531.94,58.02 L 531.94,55.9 L 529.52,55.9 L 529.52,53.49" />
        <path
           id="path2487"
           style="fill:#1a1b1f;fill-rule:nonzero;stroke:none"
           d="M 470.8,100.18 C 469.96,100.8 468.69,101.39 466.11,101.39 C 463.92,101.39 462.12,100.99 461.69,100.99 C 461.36,100.99 461.34,101.23 461.04,101.23 C 460.77,101.23 460.74,101.15 460.69,100.74 C 460.53,99.61 460.28,97.35 460.28,96.62 C 460.28,96.38 460.45,96.08 460.93,96.08 C 461.12,96.08 461.15,96.24 461.2,96.51 C 461.42,97.62 461.9,98.54 462.71,99.18 C 463.63,99.88 464.95,100.29 466.38,100.29 C 468.37,100.29 469.88,99.02 469.88,97.13 C 469.88,95.25 468.64,94.6 465.86,93.36 C 463.76,92.42 463.01,92.07 462.2,91.26 C 461.26,90.34 461.04,89.29 461.04,88.43 C 461.04,85.68 463.09,83.71 466.94,83.71 C 467.64,83.71 468.56,83.77 469.31,83.85 C 470.04,83.93 470.63,84.01 470.71,84.01 C 470.82,84.01 470.9,83.95 470.98,83.9 C 471.07,83.87 471.09,83.87 471.25,83.87 C 471.42,83.87 471.44,83.98 471.44,84.14 C 471.44,84.3 471.39,85.68 471.47,86.35 C 471.52,86.89 471.61,87.67 471.61,87.81 C 471.61,88.08 471.25,88.16 471.01,88.16 C 470.85,88.16 470.82,88.08 470.69,87.67 C 470.42,86.87 470.12,86 469.23,85.41 C 468.56,84.92 467.62,84.68 466.62,84.68 C 464.81,84.68 463.44,85.79 463.44,87.62 C 463.44,89.61 464.7,90.15 467.83,91.53 C 469.99,92.47 472.55,93.58 472.55,96.62 C 472.55,98.26 471.71,99.51 470.8,100.18" />
        <path
           id="path2489"
           style="fill:#1a1b1f;fill-rule:nonzero;stroke:none"
           d="M 491.58,90.42 C 490.96,90.72 489.98,92.47 489.31,93.74 C 488.64,95 487.56,97.35 486.7,99.21 C 486.51,99.67 486.1,100.58 486.02,100.74 C 485.92,101.01 485.73,101.09 485.48,101.12 L 484.81,101.2 C 484.62,101.23 484.59,101.18 484.43,100.58 C 484.11,99.4 483.38,97.11 482.44,94.47 C 480.61,98.02 480.2,98.89 479.37,100.77 C 479.26,101.07 479.26,101.07 479.07,101.09 L 478.13,101.23 C 478.02,101.23 477.99,101.15 477.83,100.72 C 476.91,98.08 475.35,93.95 474.35,91.8 C 473.95,90.96 473.71,90.58 473.46,90.48 C 473.14,90.31 473.11,90.31 473.11,89.99 C 473.11,89.77 473.17,89.69 473.41,89.69 C 473.98,89.69 475.11,89.72 475.54,89.72 C 476.48,89.72 477.35,89.69 478.18,89.69 C 478.29,89.69 478.32,89.86 478.32,90.05 C 478.32,90.37 478.29,90.39 477.96,90.42 C 477.1,90.5 476.86,90.77 476.86,91.23 C 476.86,91.69 477.32,92.93 477.72,94.06 C 478.15,95.17 478.58,96.33 479.47,98.56 C 479.96,97.56 481.47,94.44 482.03,93.23 C 481.52,91.93 481.17,91.07 480.93,90.75 C 480.69,90.48 480.52,90.45 480.01,90.37 C 479.85,90.34 479.82,90.23 479.82,90.07 C 479.82,89.8 479.88,89.69 480.15,89.69 C 480.88,89.69 482.25,89.72 482.73,89.72 C 483.33,89.72 484.87,89.69 485.16,89.69 C 485.43,89.69 485.46,89.8 485.46,90.05 C 485.46,90.37 485.43,90.39 485.11,90.45 C 484.27,90.5 483.81,90.53 483.81,91.18 C 483.81,91.66 485.59,97.05 486.1,98.51 C 486.91,96.76 487.86,94.71 488.39,93.41 C 488.69,92.69 489.1,91.71 489.1,91.2 C 489.1,90.5 488.45,90.39 487.83,90.37 C 487.48,90.37 487.45,90.34 487.45,90.05 C 487.45,89.8 487.48,89.69 487.69,89.69 C 487.99,89.69 488.96,89.72 489.82,89.72 C 490.47,89.72 491.25,89.69 491.6,89.69 C 491.79,89.69 491.85,89.8 491.85,89.99 C 491.85,90.26 491.76,90.31 491.58,90.42" />
        <path
           id="path2491"
           style="fill:#1a1b1f;fill-rule:nonzero;stroke:none"
           d="M 495.72,85.71 C 495.11,85.71 494.38,84.98 494.38,84.36 C 494.38,83.63 495.21,82.9 495.81,82.9 C 496.43,82.9 497.18,83.63 497.18,84.28 C 497.18,84.95 496.45,85.71 495.72,85.71 z M 498.58,101.12 C 498.2,101.12 496.99,101.07 495.67,101.07 C 494.62,101.07 493.11,101.12 492.6,101.12 C 492.41,101.12 492.36,101.07 492.36,100.83 C 492.36,100.5 492.41,100.48 492.79,100.39 C 493.68,100.23 494,100.02 494.19,99.42 C 494.4,98.75 494.4,96.54 494.4,94.98 C 494.4,92.17 494.4,91.8 493.11,91.63 C 492.68,91.55 492.65,91.55 492.65,91.26 C 492.65,90.96 492.79,90.94 493.03,90.8 C 493.54,90.58 495.21,89.77 495.86,89.51 C 496.13,89.37 496.35,89.32 496.53,89.32 C 496.72,89.32 496.8,89.4 496.8,89.56 C 496.78,89.94 496.72,90.75 496.7,91.18 C 496.67,91.8 496.62,93.01 496.62,95.08 C 496.62,95.92 496.62,98.89 496.75,99.48 C 496.88,100.23 497.4,100.31 498.45,100.37 C 498.82,100.39 498.88,100.45 498.88,100.74 C 498.88,101.07 498.8,101.12 498.58,101.12" />
        <path
           id="path2493"
           style="fill:#1a1b1f;fill-rule:nonzero;stroke:none"
           d="M 503.68,101.37 C 502.54,101.37 501.63,101.2 501.14,101.12 C 500.9,101.09 500.68,101.04 500.58,101.04 C 500.5,101.04 500.31,101.09 500.2,101.09 C 500.04,101.09 499.98,100.96 499.98,100.74 C 499.98,100.45 500.01,99.99 500.01,99.42 C 500.01,98.99 499.9,98.05 499.9,97.81 C 499.9,97.59 500.12,97.54 500.41,97.54 C 500.58,97.54 500.6,97.59 500.71,98 C 501.25,100.02 503.08,100.45 504.05,100.45 C 505.78,100.45 506.18,99.32 506.18,98.64 C 506.18,97.48 505.24,96.92 503.46,96.08 C 501.95,95.38 500.33,94.6 500.33,92.69 C 500.33,91.45 501.2,89.48 504.73,89.48 C 505.7,89.48 506.86,89.69 507.05,89.69 C 507.13,89.69 507.31,89.64 507.42,89.64 C 507.61,89.64 507.61,89.69 507.67,90.1 C 507.72,90.72 507.85,91.93 507.85,92.36 C 507.85,92.6 507.8,92.69 507.31,92.69 C 507.18,92.69 507.13,92.63 507.02,92.34 C 506.72,91.69 505.97,90.39 504.24,90.39 C 502.63,90.39 502.38,91.53 502.38,92.04 C 502.38,93.09 503.11,93.55 505.19,94.52 C 506.64,95.19 508.47,96.06 508.47,98.08 C 508.47,100.88 505.24,101.37 503.68,101.37" />
        <path
           id="path2495"
           style="fill:#1a1b1f;fill-rule:nonzero;stroke:none"
           d="M 513.7,101.37 C 512.57,101.37 511.65,101.2 511.17,101.12 C 510.92,101.09 510.71,101.04 510.6,101.04 C 510.52,101.04 510.33,101.09 510.22,101.09 C 510.06,101.09 510.01,100.96 510.01,100.74 C 510.01,100.45 510.04,99.99 510.04,99.42 C 510.04,98.99 509.93,98.05 509.93,97.81 C 509.93,97.59 510.14,97.54 510.44,97.54 C 510.6,97.54 510.63,97.59 510.74,98 C 511.28,100.02 513.11,100.45 514.08,100.45 C 515.8,100.45 516.21,99.32 516.21,98.64 C 516.21,97.48 515.26,96.92 513.49,96.08 C 511.98,95.38 510.36,94.6 510.36,92.69 C 510.36,91.45 511.22,89.48 514.75,89.48 C 515.72,89.48 516.88,89.69 517.07,89.69 C 517.15,89.69 517.34,89.64 517.45,89.64 C 517.64,89.64 517.64,89.69 517.69,90.1 C 517.74,90.72 517.88,91.93 517.88,92.36 C 517.88,92.6 517.82,92.69 517.34,92.69 C 517.21,92.69 517.15,92.63 517.04,92.34 C 516.75,91.69 515.99,90.39 514.27,90.39 C 512.65,90.39 512.41,91.53 512.41,92.04 C 512.41,93.09 513.13,93.55 515.21,94.52 C 516.67,95.19 518.5,96.06 518.5,98.08 C 518.5,100.88 515.26,101.37 513.7,101.37" />
        <path
           id="path2497"
           style="fill:#1a1b1f;fill-rule:nonzero;stroke:none"
           d="M 533.4,100.39 C 533.24,100.96 533.19,101.18 532.92,101.18 C 532.35,101.18 531.89,101.04 526.85,101.04 C 522.19,101.04 521.11,101.18 520.79,101.18 C 520.52,101.18 520.47,101.09 520.47,100.83 C 520.47,100.45 520.49,100.45 520.92,100.39 C 522.49,100.26 522.62,99.37 522.73,98.43 C 522.89,96.76 522.89,93.39 522.89,91.18 C 522.89,89.67 522.89,87.27 522.89,87.27 C 522.89,85.46 522.76,84.92 521.38,84.71 C 520.76,84.63 520.71,84.6 520.71,84.36 C 520.71,83.98 520.76,83.95 521.01,83.95 C 521.84,83.95 523.4,84.06 524.19,84.06 C 525.18,84.06 526.91,83.95 527.58,83.95 C 527.77,83.95 527.88,84.03 527.88,84.25 C 527.88,84.63 527.85,84.65 527.39,84.71 C 526.21,84.79 525.72,85.06 525.56,85.95 C 525.34,86.97 525.32,91.28 525.32,93.04 C 525.32,95.49 525.34,98.37 525.53,99.18 C 525.67,99.83 526.1,99.86 527.23,99.86 C 528.9,99.86 530.76,99.86 531.71,99.29 C 532.43,98.86 532.92,97.97 533.21,97 C 533.32,96.62 533.38,96.41 533.54,96.41 C 534.05,96.41 534.13,96.51 534.13,96.7 C 534.13,97.11 533.97,98.35 533.4,100.39" />
        <path
           id="path2499"
           style="fill:#1a1b1f;fill-rule:nonzero;stroke:none"
           d="M 538.5,85.71 C 537.88,85.71 537.15,84.98 537.15,84.36 C 537.15,83.63 537.98,82.9 538.58,82.9 C 539.2,82.9 539.95,83.63 539.95,84.28 C 539.95,84.95 539.22,85.71 538.5,85.71 z M 541.35,101.12 C 540.98,101.12 539.76,101.07 538.44,101.07 C 537.39,101.07 535.88,101.12 535.37,101.12 C 535.18,101.12 535.13,101.07 535.13,100.83 C 535.13,100.5 535.18,100.48 535.56,100.39 C 536.45,100.23 536.77,100.02 536.96,99.42 C 537.18,98.75 537.18,96.54 537.18,94.98 C 537.18,92.17 537.18,91.8 535.88,91.63 C 535.45,91.55 535.42,91.55 535.42,91.26 C 535.42,90.96 535.56,90.94 535.8,90.8 C 536.31,90.58 537.98,89.77 538.63,89.51 C 538.9,89.37 539.12,89.32 539.3,89.32 C 539.49,89.32 539.58,89.4 539.58,89.56 C 539.55,89.94 539.49,90.75 539.47,91.18 C 539.44,91.8 539.39,93.01 539.39,95.08 C 539.39,95.92 539.39,98.89 539.52,99.48 C 539.65,100.23 540.17,100.31 541.22,100.37 C 541.6,100.39 541.65,100.45 541.65,100.74 C 541.65,101.07 541.57,101.12 541.35,101.12" />
        <g
           id="q5"
           style="fill:#1a1b1f;fill-rule:nonzero;stroke:none"
           transform="matrix(1,0,0,-1,0,841.89)">
          <clipPath
             id="clipPath2725">
            <path
               id="path2727"
               d="M 460.28,810.71 L 460.28,740.5 L 561.05,740.5 L 561.05,810.71" />
          </clipPath>
          <g
             id="g2505"
             clip-path="url(#clp6)">
            <path
               id="path2507"
               style="fill:#1a1b1f;fill-rule:nonzero;stroke:none"
               d="M 552.89,756.94 C 552.73,756.94 552.56,757.13 552.24,757.4 C 551.86,757.72 551.22,758.15 549.84,758.15 C 546.93,758.15 546.8,756.37 546.8,752.14 C 547.07,752.14 549.98,752.14 550.57,752.14 C 550.84,752.14 550.81,752.06 550.81,751.47 C 550.81,750.93 550.81,750.79 550.46,750.79 L 546.8,750.79 C 546.8,748.29 546.82,744.89 546.85,743.27 C 546.9,741.77 547.42,741.55 549.22,741.55 C 549.57,741.52 549.6,741.47 549.6,741.17 C 549.6,740.82 549.55,740.74 549.06,740.74 C 548.66,740.74 546.69,740.8 545.42,740.8 C 544.51,740.8 543.38,740.74 542.94,740.74 C 542.81,740.74 542.78,740.9 542.78,741.09 C 542.78,741.41 542.81,741.44 543.13,741.5 C 544.26,741.66 544.45,741.93 544.51,743.44 C 544.56,745.22 544.56,748.83 544.56,750.77 L 543.16,750.77 C 543,750.79 543,750.82 543,751.04 C 543,751.36 543,751.39 543.13,751.47 L 544.59,752.12 C 544.64,754.46 544.67,755.51 545.88,757.07 C 547.04,758.58 549.01,759.82 551.16,759.82 C 553.19,759.82 554.34,758.85 554.34,758.1 C 554.34,757.48 553.1,756.94 552.89,756.94" />
            <path
               id="path2509"
               style="fill:#1a1b1f;fill-rule:nonzero;stroke:none"
               d="M 556.04,751.44 C 554.45,751.44 553.72,749.39 553.7,747.4 C 554.83,747.59 555.53,747.75 557.47,748.23 C 558.3,748.45 558.44,748.66 558.44,748.93 C 558.44,749.9 557.39,751.44 556.04,751.44 z M 560.73,742.25 C 559.71,741.36 557.93,740.52 556.07,740.52 C 552.19,740.52 551.38,743.84 551.38,745.89 C 551.38,750.09 554.24,752.41 556.8,752.41 C 558.09,752.41 560.14,751.74 560.78,749.36 C 560.95,748.72 561.08,747.91 560.95,747.88 C 558.52,747.51 556.12,747.05 553.72,746.56 C 553.8,744.68 554.53,742.06 557.36,742.06 C 558.22,742.06 559.57,742.3 560.81,743.25 C 560.89,743.33 560.95,743.35 560.97,743.25 C 561,743.06 561.03,742.92 561.05,742.74 C 561.05,742.55 560.97,742.44 560.73,742.25" />
          </g>
        </g>
      </g>
    </g>
  </g>
</svg>
